<svg xmlns="http://www.w3.org/2000/svg"
  width="101"
  height="101"
  fill="none">
  <path fill="#fff"
    d="M9.604 36.315v-7.968h3.721c2.46 0 4.475-.424 6.046-1.271 1.592-.869 2.843-2.264 3.752-4.186.91-1.943 1.571-4.527 1.984-7.752h8.651c-.889 7.111-2.894 12.423-6.015 15.937-3.121 3.494-7.41 5.24-12.867 5.24H9.604Zm-5.178 33.12V.504h8.403v62.2l-8.403 6.73Zm21.487-21.43-8.061-16 7.503-2.542 10.511 18.541h-9.953ZM56.134 48.315l-.713-9.736-.124-4.28v-6.417c0-1.757-.754-3.039-2.263-3.845-1.489-.827-3.71-1.282-6.666-1.364l-8.403-.217.62-7.628 7.162.093c5.953.083 10.377 1.261 13.27 3.535 2.895 2.253 4.342 5.55 4.342 9.89v12.155l4.558.682v6.822l-11.783.31Zm-11.13.31c-3.494 0-6.212-.858-8.155-2.574-1.943-1.715-2.915-4.155-2.915-7.317 0-3.68 1.271-6.501 3.814-8.465 2.542-1.963 6.15-2.945 10.82-2.945 1.8 0 3.35.093 4.652.279 1.323.186 2.656.475 4 .868l-1.365 6.542c-1.323-.31-2.511-.486-3.565-.527a56.58 56.58 0 0 0-3.318-.093c-4.34 0-6.511 1.24-6.511 3.72 0 1.117.392 1.975 1.178 2.574.785.579 1.933.868 3.442.868 1.819 0 3.338-.34 4.557-1.023 1.22-.682 2.13-1.55 2.729-2.604.62-1.055.93-2.14.93-3.256v-2.046l1.178 8.433H53.84l1.085-.992c-.062 1.902-.496 3.493-1.302 4.775-.806 1.26-1.943 2.212-3.41 2.852-1.448.62-3.184.93-5.21.93Z"/>
  <path fill="#fff"
    d="M81.58 48.625c-4.733 0-8.402-1.489-11.007-4.465-2.604-2.977-3.907-7.173-3.907-12.589 0-5.436 1.303-9.632 3.907-12.588 2.605-2.977 6.274-4.465 11.007-4.465 4.734 0 8.403 1.488 11.007 4.465 2.605 2.956 3.907 7.152 3.907 12.588 0 5.416-1.302 9.612-3.907 12.589-2.604 2.976-6.273 4.465-11.007 4.465Zm0-7.969c2.026 0 3.587-.785 4.682-2.356 1.096-1.592 1.643-3.835 1.643-6.729 0-2.914-.547-5.157-1.643-6.728-1.095-1.57-2.656-2.356-4.682-2.356-2.005 0-3.565.785-4.682 2.356-1.095 1.571-1.643 3.814-1.643 6.728 0 2.894.548 5.137 1.643 6.729 1.117 1.57 2.677 2.356 4.682 2.356Z"/>
  <path fill="#fff"
    d="M90.542 64.694v7.968h-3.72c-2.46 0-4.476.424-6.047 1.271-1.592.869-2.842 2.264-3.752 4.186-.91 1.943-1.57 4.527-1.984 7.752h-8.65c.888-7.11 2.893-12.423 6.014-15.937 3.122-3.494 7.41-5.24 12.868-5.24h5.27Zm5.178-33.12v68.931h-8.403v-62.2l8.403-6.73Zm-21.487 21.43 8.061 16-7.503 2.542L64.28 53.004h9.953ZM44.012 52.694l.713 9.736.124 4.28v6.417c0 1.757.755 3.039 2.264 3.845 1.488.827 3.71 1.282 6.666 1.364l8.402.217-.62 7.628-7.162-.093c-5.953-.083-10.377-1.261-13.27-3.535-2.895-2.253-4.341-5.55-4.341-9.89V60.507l-4.558-.682v-6.822l11.782-.31Zm11.131-.31c3.493 0 6.212.858 8.154 2.574 1.944 1.715 2.915 4.155 2.915 7.317 0 3.68-1.271 6.501-3.814 8.465-2.542 1.964-6.15 2.945-10.82 2.945-1.799 0-3.35-.093-4.652-.279a28.303 28.303 0 0 1-4-.868l1.365-6.542c1.323.31 2.511.486 3.566.527 1.054.062 2.16.093 3.317.093 4.341 0 6.511-1.24 6.511-3.72 0-1.117-.392-1.975-1.178-2.574-.785-.579-1.932-.868-3.441-.868-1.82 0-3.339.34-4.558 1.023-1.22.682-2.13 1.55-2.729 2.604-.62 1.055-.93 2.14-.93 3.256v2.046l-1.178-8.433h2.635l-1.085.992c.062-1.902.496-3.493 1.302-4.775.806-1.26 1.943-2.212 3.411-2.852 1.447-.62 3.183-.93 5.209-.93Z"/>
  <path fill="#fff"
    d="M18.566 52.384c4.734 0 8.403 1.489 11.007 4.465 2.605 2.977 3.907 7.173 3.907 12.589 0 5.436-1.302 9.632-3.907 12.588-2.604 2.977-6.273 4.465-11.007 4.465-4.733 0-8.403-1.488-11.007-4.465-2.605-2.956-3.907-7.152-3.907-12.588 0-5.416 1.302-9.612 3.907-12.589 2.604-2.976 6.273-4.465 11.007-4.465Zm0 7.969c-2.026 0-3.586.785-4.682 2.356-1.095 1.592-1.643 3.835-1.643 6.729 0 2.914.548 5.157 1.643 6.728 1.096 1.57 2.656 2.356 4.682 2.356 2.005 0 3.566-.785 4.682-2.356 1.095-1.571 1.643-3.814 1.643-6.728 0-2.894-.548-5.137-1.643-6.729-1.116-1.57-2.677-2.356-4.682-2.356Z"/>
</svg>