<?xml version="1.0" standalone="no"?>
<!DOCTYPE svg PUBLIC "-//W3C//DTD SVG 20010904//EN"
 "http://www.w3.org/TR/2001/REC-SVG-20010904/DTD/svg10.dtd">
<svg version="1.0" xmlns="http://www.w3.org/2000/svg"
 width="700.000000pt" height="700.000000pt" viewBox="0 0 700.000000 700.000000"
 preserveAspectRatio="xMidYMid meet">
<metadata>
Created by potrace 1.14, written by Peter Selinger 2001-2017
</metadata>
<g transform="translate(0.000000,700.000000) scale(0.100000,-0.100000)"
fill="#000000" stroke="none">
<path d="M309 6950 c0 -8 -1 -976 -1 -2150 0 -1808 -2 -2146 -15 -2210 -47
-248 -51 -514 -12 -735 64 -360 255 -629 537 -756 75 -34 218 -74 302 -85 59
-7 316 -8 328 0 4 2 32 7 62 11 84 10 249 68 330 117 258 154 424 442 468 813
9 79 9 393 -1 470 -29 241 -111 451 -237 610 -124 155 -324 274 -523 311 -123
22 -371 27 -467 9 -40 -7 -135 -30 -168 -40 l-22 -7 2 587 3 587 155 3 c85 2
191 11 235 19 74 15 80 15 90 -1 5 -10 102 -200 215 -423 l205 -405 343 -1
c188 0 342 2 342 5 0 3 -33 64 -74 136 -41 71 -83 146 -94 165 -11 19 -36 64
-57 100 -52 90 -331 583 -367 647 l-29 53 37 37 c115 117 233 320 309 532 35
95 90 317 109 436 9 55 19 115 22 133 l5 32 -300 0 -299 0 -12 -72 c-7 -40
-14 -82 -16 -93 -2 -11 -7 -33 -9 -50 -22 -123 -89 -305 -147 -403 -37 -61
-113 -141 -173 -182 -103 -71 -265 -112 -450 -114 l-40 -1 -5 965 -5 965 -287
1 c-253 0 -288 -2 -289 -16z m1086 -4145 c17 -3 48 -15 70 -27 167 -86 255
-279 258 -568 2 -188 -19 -306 -78 -425 -44 -90 -103 -150 -185 -189 -60 -29
-73 -31 -175 -31 -97 0 -116 3 -165 26 -108 51 -179 137 -224 271 -35 104 -38
125 -42 303 -3 133 0 176 17 255 65 300 251 437 524 385z"/>
<path d="M5617 5994 c-1 -1 -38 -4 -82 -7 -295 -21 -525 -144 -702 -375 -73
-95 -158 -309 -183 -462 -7 -41 -15 -86 -17 -100 -9 -49 -11 -396 -3 -445 4
-27 11 -72 14 -100 30 -227 139 -456 286 -604 137 -138 296 -217 515 -255 159
-28 470 -7 588 39 16 7 17 -23 15 -581 l-3 -588 -130 -2 c-129 -1 -209 -8
-295 -24 -25 -5 -47 -6 -50 -3 -3 2 -99 192 -215 421 l-210 417 -343 1 c-272
0 -342 -2 -338 -12 3 -7 52 -95 109 -196 57 -101 116 -205 132 -233 15 -27 31
-54 35 -60 4 -5 20 -32 35 -60 15 -27 90 -161 167 -298 l140 -247 -58 -63
c-105 -113 -206 -288 -278 -481 -36 -95 -99 -325 -109 -396 -3 -19 -10 -66
-17 -105 -6 -38 -13 -82 -15 -98 l-4 -27 301 2 301 3 3 35 c4 34 19 123 29
167 3 13 7 32 10 43 8 40 44 165 53 190 5 14 11 30 12 35 3 14 73 147 85 162
6 7 23 30 40 51 106 137 294 217 530 224 l80 3 5 -965 5 -965 290 0 289 0 2
2175 c1 1976 3 2181 17 2245 23 98 31 196 31 370 0 156 -6 218 -30 345 -77
408 -327 694 -686 786 -65 17 -68 17 -163 29 -55 6 -184 12 -188 9z m203 -585
c70 -33 124 -80 165 -144 34 -53 71 -144 80 -197 4 -18 10 -50 15 -71 4 -21 9
-99 9 -175 4 -350 -114 -576 -327 -626 -175 -41 -345 20 -435 157 -77 117
-109 258 -110 477 0 315 116 533 316 595 25 8 81 13 137 11 78 -2 105 -7 150
-27z"/>
<path d="M2669 5924 c0 -27 -2 -56 -4 -65 -1 -9 -6 -58 -10 -110 -3 -52 -8
-116 -11 -144 -2 -27 -6 -76 -8 -107 l-5 -57 32 1 c40 1 544 -13 612 -17 351
-21 533 -124 552 -312 6 -53 5 -54 -18 -49 -51 12 -115 24 -129 24 -8 0 -44 4
-80 8 -115 13 -388 8 -508 -10 -327 -49 -563 -196 -665 -416 -57 -123 -70
-187 -71 -355 0 -140 20 -243 68 -336 119 -231 358 -349 701 -347 379 3 607
161 668 463 10 50 16 60 35 62 12 2 22 -1 23 -5 0 -4 2 -14 4 -23 1 -9 6 -63
9 -120 4 -57 9 -133 12 -169 7 -74 12 -135 13 -167 l1 -23 188 6 c351 11 387
12 508 13 l122 1 0 236 c0 171 -3 236 -11 239 -13 4 -27 7 -192 31 -60 9 -111
17 -112 18 -2 1 -3 218 -3 482 -1 524 -5 565 -59 713 -37 102 -93 190 -169
266 -59 59 -198 156 -242 170 -14 4 -29 11 -35 15 -20 15 -163 59 -255 78 -87
19 -144 28 -240 38 -19 2 -189 7 -377 10 l-343 6 -1 -48z m1016 -1319 c135
-15 140 -17 141 -55 3 -126 -126 -302 -270 -369 -89 -41 -148 -54 -269 -57
-154 -3 -235 21 -295 90 -34 39 -56 122 -47 176 17 99 64 147 190 195 74 28
373 39 550 20z"/>
<path d="M3635 3354 c-262 -46 -422 -188 -479 -424 -18 -75 -24 -85 -44 -86
-12 -1 -23 4 -23 10 -1 6 -3 20 -4 31 -3 20 -10 116 -21 285 -4 52 -8 101 -9
110 -2 8 -4 27 -4 42 l-1 26 -117 -3 c-65 -2 -237 -6 -383 -10 -146 -4 -276
-8 -290 -9 l-25 -1 -1 -237 c-1 -235 -1 -238 20 -239 12 -1 26 -2 31 -3 6 -1
37 -6 70 -10 33 -5 67 -10 75 -11 8 -2 39 -6 68 -10 l52 -7 1 -467 c1 -516 1
-524 29 -634 69 -277 247 -466 540 -572 112 -41 241 -70 354 -81 33 -3 72 -8
86 -10 14 -3 179 -8 368 -11 l342 -6 1 49 c0 27 2 57 4 67 2 9 6 57 9 105 4
48 8 107 11 132 3 25 7 75 10 111 l5 66 -48 0 c-75 0 -548 14 -605 18 -302 20
-473 99 -527 241 -11 30 -20 70 -20 90 0 31 2 34 23 29 130 -29 227 -38 417
-39 136 0 270 7 322 18 13 3 53 12 90 21 337 80 549 276 608 563 22 111 20
299 -4 391 -69 257 -254 414 -550 465 -97 17 -287 17 -381 0z m191 -492 c53
-17 90 -40 122 -77 38 -42 46 -70 46 -150 0 -133 -105 -219 -294 -243 -101
-12 -431 -6 -505 10 -94 20 -87 15 -82 61 20 159 149 311 322 378 87 34 311
46 391 21z"/>
</g>
</svg>
