<svg xmlns="http://www.w3.org/2000/svg"
  width="151"
  height="151"
  fill="none">
  <circle cx="75.418"
    cy="75.184"
    r="75"
    fill="#18181B"/>
  <path fill="#fff"
    d="M34.949 60.995v-7.969h3.72c2.46 0 4.476-.423 6.047-1.27 1.591-.869 2.842-2.264 3.752-4.187.909-1.943 1.57-4.527 1.984-7.751h8.65c-.888 7.11-2.893 12.423-6.015 15.937-3.12 3.493-7.41 5.24-12.867 5.24h-5.271Zm-5.178 33.12v-68.93h8.403v62.2l-8.403 6.73Zm21.487-21.43-8.062-16 7.504-2.542 10.51 18.541h-9.952ZM81.479 72.994l-.713-9.736-.124-4.278V52.56c0-1.757-.755-3.038-2.264-3.844-1.488-.827-3.71-1.282-6.666-1.365l-8.403-.217.62-7.627 7.163.093c5.953.083 10.377 1.26 13.27 3.535 2.894 2.253 4.341 5.55 4.341 9.89v12.155l4.558.682v6.821l-11.782.31Zm-11.131.31c-3.494 0-6.212-.858-8.155-2.573-1.943-1.716-2.914-4.155-2.914-7.318 0-3.679 1.27-6.5 3.813-8.464 2.543-1.964 6.15-2.946 10.821-2.946 1.799 0 3.35.093 4.651.28 1.323.185 2.657.475 4 .867L81.2 59.694c-1.323-.31-2.512-.486-3.566-.527a56.583 56.583 0 0 0-3.317-.093c-4.341 0-6.512 1.24-6.512 3.72 0 1.117.393 1.974 1.178 2.574.786.578 1.933.868 3.442.868 1.82 0 3.338-.341 4.558-1.023 1.22-.682 2.13-1.55 2.728-2.605.62-1.054.93-2.14.93-3.255v-2.047l1.179 8.434h-2.636l1.086-.992c-.062 1.901-.496 3.493-1.303 4.775-.806 1.26-1.943 2.211-3.41 2.852-1.447.62-3.183.93-5.21.93Z"/>
  <path fill="#fff"
    d="M106.925 73.304c-4.734 0-8.403-1.488-11.007-4.465-2.605-2.976-3.907-7.172-3.907-12.588 0-5.436 1.302-9.632 3.907-12.588 2.604-2.977 6.273-4.465 11.007-4.465 4.733 0 8.402 1.488 11.007 4.465 2.604 2.956 3.907 7.152 3.907 12.588 0 5.416-1.303 9.612-3.907 12.588-2.605 2.977-6.274 4.465-11.007 4.465Zm0-7.968c2.025 0 3.586-.786 4.682-2.357 1.095-1.591 1.643-3.834 1.643-6.728 0-2.914-.548-5.157-1.643-6.728-1.096-1.571-2.657-2.357-4.682-2.357-2.005 0-3.566.786-4.682 2.357-1.096 1.57-1.643 3.813-1.643 6.728 0 2.894.547 5.137 1.643 6.728 1.116 1.571 2.677 2.357 4.682 2.357Z"/>
  <path fill="#fff"
    d="M115.886 89.373v7.969h-3.72c-2.46 0-4.476.424-6.047 1.271-1.591.868-2.842 2.264-3.751 4.186-.91 1.943-1.571 4.527-1.985 7.751h-8.65c.889-7.11 2.894-12.423 6.015-15.937 3.121-3.493 7.41-5.24 12.867-5.24h5.271Zm5.178-33.119v68.93h-8.402v-62.2l8.402-6.73Zm-21.487 21.43 8.062 16-7.504 2.542-10.51-18.542h9.952ZM69.356 77.374l.714 9.736.124 4.279v6.418c0 1.757.754 3.039 2.263 3.845 1.488.826 3.71 1.281 6.666 1.364l8.403.217-.62 7.627-7.163-.093c-5.953-.082-10.376-1.261-13.27-3.534-2.894-2.253-4.341-5.55-4.341-9.891V85.188l-4.558-.683v-6.82l11.782-.31Zm11.132-.31c3.493 0 6.211.858 8.154 2.574 1.943 1.715 2.915 4.154 2.915 7.317 0 3.68-1.272 6.5-3.814 8.465-2.543 1.963-6.15 2.945-10.821 2.945-1.798 0-3.349-.093-4.651-.279a28.275 28.275 0 0 1-4-.868l1.364-6.542c1.323.31 2.512.485 3.566.527 1.054.062 2.16.093 3.318.093 4.34 0 6.511-1.24 6.511-3.721 0-1.116-.393-1.974-1.178-2.574-.786-.578-1.933-.868-3.442-.868-1.819 0-3.338.341-4.558 1.024-1.22.682-2.129 1.55-2.728 2.604-.62 1.054-.93 2.14-.93 3.256v2.046l-1.179-8.434h2.636l-1.085.993c.062-1.902.496-3.494 1.302-4.775.806-1.261 1.943-2.212 3.41-2.853 1.447-.62 3.184-.93 5.21-.93Z"/>
  <path fill="#fff"
    d="M43.91 77.064c4.734 0 8.403 1.488 11.008 4.465 2.604 2.976 3.906 7.173 3.906 12.588 0 5.437-1.302 9.633-3.906 12.589-2.605 2.976-6.274 4.464-11.008 4.464-4.733 0-8.402-1.488-11.007-4.464-2.604-2.956-3.906-7.152-3.906-12.589 0-5.415 1.302-9.612 3.906-12.588 2.605-2.977 6.274-4.465 11.008-4.465Zm0 7.969c-2.025 0-3.586.785-4.681 2.356-1.096 1.592-1.644 3.834-1.644 6.728 0 2.915.548 5.158 1.644 6.729 1.095 1.57 2.656 2.356 4.681 2.356 2.006 0 3.566-.786 4.682-2.356 1.096-1.571 1.644-3.814 1.644-6.729 0-2.894-.548-5.136-1.644-6.728-1.116-1.571-2.676-2.356-4.681-2.356Z"/>
</svg>