<svg xmlns="http://www.w3.org/2000/svg"
  width="1080"
  height="1080"
  fill="none">
  <path id="O1"
    fill="url(#a)"
    d="M539.5 1045.87c-250.072 0-375.107-166.409-375.107-499.222 0-342.057 125.035-513.086 375.107-513.086 250.072 0 375.107 171.029 375.107 513.086 0 332.813-125.035 499.222-375.107 499.222Zm0-174.729c122.031 0 183.047-108.164 183.047-324.493 0-225.572-61.016-338.359-183.047-338.359S356.453 321.076 356.453 546.648c0 216.329 61.016 324.493 183.047 324.493Z"/>
  <path id="K"
    fill="url(#b)"
    d="m314.852 718.602 12.48-183.741c65.638 0 122.262-13.636 169.873-40.908 48.073-27.272 87.594-64.02 118.565-110.244 31.432-46.224 54.544-98.226 69.335-156.006 15.254-58.242 22.881-118.333 22.881-180.273h185.821c0 87.363-12.943 171.259-38.828 251.689-25.886 80.43-63.79 152.308-113.711 215.635-49.46 62.864-110.013 112.555-181.661 149.072-71.647 36.517-153.232 54.776-244.755 54.776ZM215.701 1032V47.43h183.047V1032H215.701Zm499.219 0L517.312 595.877l170.567-70.723L940.955 1032H714.92Z"/>
  <mask id="c"
    width="377"
    height="505"
    x="584"
    y="561"
    maskUnits="userSpaceOnUse"
    style="mask-type:alpha">
    <path fill="#000"
      d="M584 561h377v505H584z"/>
  </mask>
  <g id="O2"
    mask="url(#c)">
    <path fill="url(#a)"
      d="M539.5 1045.87c-250.072 0-375.107-166.409-375.107-499.222 0-342.057 125.035-513.086 375.107-513.086 250.072 0 375.107 171.029 375.107 513.086 0 332.813-125.035 499.222-375.107 499.222Zm0-174.729c122.031 0 183.047-108.164 183.047-324.493 0-225.572-61.016-338.359-183.047-338.359S356.453 321.076 356.453 546.648c0 216.329 61.016 324.493 183.047 324.493Z"/>
  </g>
  <defs>
    <linearGradient id="a"
      x1="539.5"
      x2="539.5"
      y1="47"
      y2="1032"
      gradientUnits="userSpaceOnUse">
      <stop stop-color="#42047E"/>
      <stop offset="1"
        stop-color="#07F49E"/>
    </linearGradient>
    <linearGradient id="b"
      x1="539.5"
      x2="539.5"
      y1="47"
      y2="1032"
      gradientUnits="userSpaceOnUse">
      <stop stop-color="#FFCF67"/>
      <stop offset=".785"
        stop-color="#D3321D"/>
    </linearGradient>
  </defs>
</svg>